# xmcd
#
# Track frame offsets: 
#        150
#        28616
#        43426
#        57490
#        59260
#        106700
#        125145
#        134488
#        138416
#        141766
#        143633
#        150888
#        168841
#        183692
#        199117
#        209174
#        214292
#        217674
#        236053
#        248336
#        265384
#        268937
#        276134
#        283809
#        292349
#        308190
#        312388
#        326737
#        330425
#        339862
#
# Disc length: 4775 seconds
#
# Revision: 0
# Processed by: cddbd v1.5.2PL0 Copyright (c) Steve Scherf et al.
# Submitted via: ExactAudioCopy v0.95b4
#
DISCID=e712a51e
DTITLE=The Beatles  - AB  Road - Complete Purple Chick Set v1.1 Jan.10
DTITLE=Various Artist - D2  FLAC
DYEAR=1900
DGENRE=
TTITLE0=Get Back 10.18
TTITLE1=Get Back 10.19
TTITLE2=Get Back 10.20
TTITLE3=She's A Woman 10.21
TTITLE4=Get Back 10.22
TTITLE5=Get Back 10.23
TTITLE6=Hi Heel Sneakers 10.24
TTITLE7=Hi Heel Sneakers 10.25
TTITLE8=Long Tall Sally 10.26
TTITLE9=Get Back 10.27
TTITLE10=Instrumental 10.28
TTITLE11=Get Back 10.29
TTITLE12=Get Back 10.30
TTITLE13=Get Back 10.31
TTITLE14=Get Back 10.32
TTITLE15=Get Back 10.33
TTITLE16=Theme From The Beatles Cartoon 10.34
TTITLE17=Get Back 10.35
TTITLE18=Get Back 10.36
TTITLE19=Get Back 10.37
TTITLE20=Catch A Falling Star 10.38
TTITLE21=Get Back 10.39
TTITLE22=Get Back 10.40
TTITLE23=Get Back 10.41
TTITLE24=Improvisation 10.42
TTITLE25=Two Of Us 10.43
TTITLE26=Two Of Us 10.44
TTITLE27=Two Of Us 10.45
TTITLE28=Two Of Us 10.46
TTITLE29=Two Of Us 10.47
EXTD=
EXTT0=
EXTT1=
EXTT2=
EXTT3=
EXTT4=
EXTT5=
EXTT6=
EXTT7=
EXTT8=
EXTT9=
EXTT10=
EXTT11=
EXTT12=
EXTT13=
EXTT14=
EXTT15=
EXTT16=
EXTT17=
EXTT18=
EXTT19=
EXTT20=
EXTT21=
EXTT22=
EXTT23=
EXTT24=
EXTT25=
EXTT26=
EXTT27=
EXTT28=
EXTT29=
PLAYORDER=
